<svg width="174" height="37" viewBox="0 0 174 37" fill="none" xmlns="http://www.w3.org/2000/svg">
<path d="M16.712 27.5799C14.728 27.5799 13.0213 27.0039 11.592 25.8519C10.1627 24.6999 9.07467 23.1959 8.328 21.3399C7.60267 19.4626 7.24 17.4892 7.24 15.4199C7.24 13.2652 7.60267 11.2919 8.328 9.4999C9.05333 7.7079 10.088 6.28924 11.432 5.24391C12.776 4.17724 14.344 3.64391 16.136 3.64391C17.0747 3.64391 17.96 3.85724 18.792 4.28391C19.624 4.71057 20.3067 5.16924 20.84 5.6599C21.352 6.12924 21.6933 6.3639 21.864 6.3639C22.0347 6.3639 22.152 6.31057 22.216 6.20391C22.3013 6.09724 22.3867 5.92657 22.472 5.69191L23.08 3.8999H23.88L24.008 13.8199H23.112C22.6427 11.7932 22.0347 10.0972 21.288 8.7319C20.5413 7.34524 19.72 6.32124 18.824 5.6599C17.9493 4.99857 17.0747 4.66791 16.2 4.66791C14.1733 4.66791 12.7333 5.58524 11.88 7.4199C11.048 9.25457 10.632 11.9212 10.632 15.4199C10.632 19.0252 11.0693 21.7879 11.944 23.7079C12.8187 25.6066 14.408 26.5559 16.712 26.5559C18.76 26.5559 20.3173 25.7986 21.384 24.2839C22.472 22.7479 23.0907 20.8919 23.24 18.7159H24.392C24.328 19.9746 24.0613 21.2759 23.592 22.6199C23.144 23.9639 22.3547 25.1266 21.224 26.1079C20.0933 27.0892 18.5893 27.5799 16.712 27.5799Z" fill="#BE9565"/>
<rect x="0.5" y="1.00391" width="31" height="31" stroke="#BE9565"/>
<path d="M37.672 23.9279H39.016C39.208 23.9279 39.344 23.8879 39.424 23.8079C39.504 23.7279 39.544 23.5919 39.544 23.3999V8.51991C39.544 8.32791 39.504 8.19191 39.424 8.11191C39.344 8.03191 39.208 7.99191 39.016 7.99191H37.672V7.41591H41.272V15.5279L41.368 15.5519C41.736 14.7839 42.192 14.2159 42.736 13.8479C43.28 13.4639 43.88 13.2719 44.536 13.2719C45.704 13.2719 46.528 13.6319 47.008 14.3519C47.504 15.0719 47.752 15.9359 47.752 16.9439V23.3999C47.752 23.5919 47.792 23.7279 47.872 23.8079C47.952 23.8879 48.088 23.9279 48.28 23.9279H49.288V24.5039H44.488V23.9279H45.496C45.688 23.9279 45.824 23.8879 45.904 23.8079C45.984 23.7279 46.024 23.5919 46.024 23.3999V16.4879C46.024 15.7839 45.88 15.1839 45.592 14.6879C45.32 14.1919 44.848 13.9439 44.176 13.9439C43.616 13.9439 43.112 14.1439 42.664 14.5439C42.232 14.9279 41.888 15.4639 41.632 16.1519C41.392 16.8239 41.272 17.5759 41.272 18.4079V23.3999C41.272 23.5919 41.312 23.7279 41.392 23.8079C41.472 23.8879 41.608 23.9279 41.8 23.9279H42.808V24.5039H37.672V23.9279ZM56.0067 24.7919C55.1267 24.7919 54.3187 24.5359 53.5827 24.0239C52.8467 23.4959 52.2627 22.7919 51.8307 21.9119C51.4147 21.0319 51.2067 20.0719 51.2067 19.0319C51.2067 17.9919 51.4147 17.0319 51.8307 16.1519C52.2627 15.2719 52.8467 14.5759 53.5827 14.0639C54.3187 13.5359 55.1267 13.2719 56.0067 13.2719C56.8867 13.2719 57.6947 13.5359 58.4307 14.0639C59.1667 14.5759 59.7427 15.2719 60.1587 16.1519C60.5907 17.0319 60.8067 17.9919 60.8067 19.0319C60.8067 20.0719 60.5907 21.0319 60.1587 21.9119C59.7427 22.7919 59.1667 23.4959 58.4307 24.0239C57.6947 24.5359 56.8867 24.7919 56.0067 24.7919ZM56.0067 24.2159C56.9667 24.2159 57.6547 23.7679 58.0707 22.8719C58.4867 21.9599 58.6947 20.6799 58.6947 19.0319C58.6947 17.3839 58.4867 16.1119 58.0707 15.2159C57.6547 14.3039 56.9667 13.8479 56.0067 13.8479C55.0467 13.8479 54.3587 14.3039 53.9427 15.2159C53.5267 16.1119 53.3187 17.3839 53.3187 19.0319C53.3187 20.6799 53.5267 21.9599 53.9427 22.8719C54.3587 23.7679 55.0467 24.2159 56.0067 24.2159ZM67.9129 24.7919C67.0329 24.7919 66.2249 24.5359 65.4889 24.0239C64.7529 23.4959 64.1689 22.7919 63.7369 21.9119C63.3209 21.0319 63.1129 20.0719 63.1129 19.0319C63.1129 17.9919 63.3209 17.0319 63.7369 16.1519C64.1689 15.2719 64.7529 14.5759 65.4889 14.0639C66.2249 13.5359 67.0329 13.2719 67.9129 13.2719C68.7929 13.2719 69.6009 13.5359 70.3369 14.0639C71.0729 14.5759 71.6489 15.2719 72.0649 16.1519C72.4969 17.0319 72.7129 17.9919 72.7129 19.0319C72.7129 20.0719 72.4969 21.0319 72.0649 21.9119C71.6489 22.7919 71.0729 23.4959 70.3369 24.0239C69.6009 24.5359 68.7929 24.7919 67.9129 24.7919ZM67.9129 24.2159C68.8729 24.2159 69.5609 23.7679 69.9769 22.8719C70.3929 21.9599 70.6009 20.6799 70.6009 19.0319C70.6009 17.3839 70.3929 16.1119 69.9769 15.2159C69.5609 14.3039 68.8729 13.8479 67.9129 13.8479C66.9529 13.8479 66.2649 14.3039 65.8489 15.2159C65.4329 16.1119 65.2249 17.3839 65.2249 19.0319C65.2249 20.6799 65.4329 21.9599 65.8489 22.8719C66.2649 23.7679 66.9529 24.2159 67.9129 24.2159ZM80.7792 24.7919C80.1392 24.7919 79.5472 24.5759 79.0032 24.1439C78.4592 23.7119 78.0272 23.1439 77.7072 22.4399H77.6112L76.6032 24.5039H76.1712V8.51991C76.1712 8.32791 76.1312 8.19191 76.0512 8.11191C75.9712 8.03191 75.8352 7.99191 75.6432 7.99191H74.3952V7.41591H77.8992V15.3359L77.9952 15.3599C78.2352 14.7839 78.6032 14.2959 79.0992 13.8959C79.5952 13.4799 80.1552 13.2719 80.7792 13.2719C81.5312 13.2719 82.2272 13.5279 82.8672 14.0399C83.5232 14.5359 84.0432 15.2239 84.4272 16.1039C84.8112 16.9839 85.0032 17.9599 85.0032 19.0319C85.0032 20.1039 84.8112 21.0799 84.4272 21.9599C84.0432 22.8399 83.5232 23.5359 82.8672 24.0479C82.2272 24.5439 81.5312 24.7919 80.7792 24.7919ZM80.5152 24.1199C81.2992 24.1199 81.8912 23.6799 82.2912 22.7999C82.6912 21.9199 82.8912 20.6639 82.8912 19.0319C82.8912 17.3999 82.6912 16.1439 82.2912 15.2639C81.8912 14.3839 81.2992 13.9439 80.5152 13.9439C80.0352 13.9439 79.5952 14.1199 79.1952 14.4719C78.7952 14.8239 78.4752 15.3119 78.2352 15.9359C78.0112 16.5439 77.8992 17.2079 77.8992 17.9279V20.1359C77.8992 20.8559 78.0112 21.5279 78.2352 22.1519C78.4752 22.7599 78.7952 23.2399 79.1952 23.5919C79.5952 23.9439 80.0352 24.1199 80.5152 24.1199ZM89.3164 10.5839C88.9644 10.5839 88.6684 10.4639 88.4284 10.2239C88.1884 9.98391 88.0684 9.68791 88.0684 9.33591C88.0684 8.96791 88.1884 8.67191 88.4284 8.44791C88.6684 8.20791 88.9644 8.08791 89.3164 8.08791C89.6844 8.08791 89.9804 8.20791 90.2044 8.44791C90.4444 8.67191 90.5644 8.96791 90.5644 9.33591C90.5644 9.68791 90.4444 9.98391 90.2044 10.2239C89.9804 10.4639 89.6844 10.5839 89.3164 10.5839ZM87.0604 23.9279H88.0684C88.2604 23.9279 88.3964 23.8879 88.4764 23.8079C88.5564 23.7279 88.5964 23.5919 88.5964 23.3999V14.6639C88.5964 14.4719 88.5564 14.3359 88.4764 14.2559C88.3964 14.1759 88.2604 14.1359 88.0684 14.1359H87.0604V13.5599H90.3244V23.3999C90.3244 23.5919 90.3644 23.7279 90.4444 23.8079C90.5244 23.8879 90.6604 23.9279 90.8524 23.9279H91.8604V24.5039H87.0604V23.9279ZM93.5292 23.9279H94.5372C94.7292 23.9279 94.8652 23.8879 94.9452 23.8079C95.0252 23.7279 95.0652 23.5919 95.0652 23.3999V14.6639C95.0652 14.4719 95.0252 14.3359 94.9452 14.2559C94.8652 14.1759 94.7292 14.1359 94.5372 14.1359H93.5292V13.5599H96.7932V15.5279L96.8892 15.5519C97.2572 14.7839 97.7132 14.2159 98.2572 13.8479C98.8012 13.4639 99.4012 13.2719 100.057 13.2719C101.225 13.2719 102.049 13.6319 102.529 14.3519C103.025 15.0719 103.273 15.9359 103.273 16.9439V23.3999C103.273 23.5919 103.313 23.7279 103.393 23.8079C103.473 23.8879 103.609 23.9279 103.801 23.9279H104.809V24.5039H100.009V23.9279H101.017C101.209 23.9279 101.345 23.8879 101.425 23.8079C101.505 23.7279 101.545 23.5919 101.545 23.3999V16.4879C101.545 15.7839 101.401 15.1839 101.113 14.6879C100.841 14.1919 100.369 13.9439 99.6972 13.9439C99.1372 13.9439 98.6332 14.1439 98.1852 14.5439C97.7532 14.9279 97.4092 15.4639 97.1532 16.1519C96.9132 16.8239 96.7932 17.5759 96.7932 18.4079V23.3999C96.7932 23.5919 96.8332 23.7279 96.9132 23.8079C96.9932 23.8879 97.1292 23.9279 97.3212 23.9279H98.3292V24.5039H93.5292V23.9279ZM105.578 28.2959V27.3359H118.058V28.2959H105.578ZM118.719 23.9279H120.063C120.255 23.9279 120.391 23.8879 120.471 23.8079C120.551 23.7279 120.591 23.5919 120.591 23.3999V8.51991C120.591 8.32791 120.551 8.19191 120.471 8.11191C120.391 8.03191 120.255 7.99191 120.063 7.99191H118.719V7.41591H122.319V15.5279L122.415 15.5519C122.783 14.7839 123.239 14.2159 123.783 13.8479C124.327 13.4639 124.927 13.2719 125.583 13.2719C126.751 13.2719 127.575 13.6319 128.055 14.3519C128.551 15.0719 128.799 15.9359 128.799 16.9439V23.3999C128.799 23.5919 128.839 23.7279 128.919 23.8079C128.999 23.8879 129.135 23.9279 129.327 23.9279H130.335V24.5039H125.535V23.9279H126.543C126.735 23.9279 126.871 23.8879 126.951 23.8079C127.031 23.7279 127.071 23.5919 127.071 23.3999V16.4879C127.071 15.7839 126.927 15.1839 126.639 14.6879C126.367 14.1919 125.895 13.9439 125.223 13.9439C124.663 13.9439 124.159 14.1439 123.711 14.5439C123.279 14.9279 122.935 15.4639 122.679 16.1519C122.439 16.8239 122.319 17.5759 122.319 18.4079V23.3999C122.319 23.5919 122.359 23.7279 122.439 23.8079C122.519 23.8879 122.655 23.9279 122.847 23.9279H123.855V24.5039H118.719V23.9279ZM137.054 24.7919C136.174 24.7919 135.366 24.5359 134.63 24.0239C133.894 23.4959 133.31 22.7919 132.878 21.9119C132.462 21.0319 132.254 20.0719 132.254 19.0319C132.254 17.9919 132.462 17.0319 132.878 16.1519C133.31 15.2719 133.894 14.5759 134.63 14.0639C135.366 13.5359 136.174 13.2719 137.054 13.2719C137.934 13.2719 138.742 13.5359 139.478 14.0639C140.214 14.5759 140.79 15.2719 141.206 16.1519C141.638 17.0319 141.854 17.9919 141.854 19.0319C141.854 20.0719 141.638 21.0319 141.206 21.9119C140.79 22.7919 140.214 23.4959 139.478 24.0239C138.742 24.5359 137.934 24.7919 137.054 24.7919ZM137.054 24.2159C138.014 24.2159 138.702 23.7679 139.118 22.8719C139.534 21.9599 139.742 20.6799 139.742 19.0319C139.742 17.3839 139.534 16.1119 139.118 15.2159C138.702 14.3039 138.014 13.8479 137.054 13.8479C136.094 13.8479 135.406 14.3039 134.99 15.2159C134.574 16.1119 134.366 17.3839 134.366 19.0319C134.366 20.6799 134.574 21.9599 134.99 22.8719C135.406 23.7679 136.094 24.2159 137.054 24.2159ZM143.92 23.9279H144.928C145.12 23.9279 145.256 23.8879 145.336 23.8079C145.416 23.7279 145.456 23.5919 145.456 23.3999V14.6639C145.456 14.4719 145.416 14.3359 145.336 14.2559C145.256 14.1759 145.12 14.1359 144.928 14.1359H143.92V13.5599H147.184V15.4799L147.28 15.5039C147.616 14.7679 148.048 14.2159 148.576 13.8479C149.12 13.4639 149.696 13.2719 150.304 13.2719C151.248 13.2719 151.944 13.5279 152.392 14.0399C152.856 14.5519 153.168 15.1599 153.328 15.8639H153.424C153.616 15.2239 153.992 14.6319 154.552 14.0879C155.128 13.5439 155.792 13.2719 156.544 13.2719C157.712 13.2719 158.536 13.6639 159.016 14.4479C159.512 15.2319 159.76 16.1519 159.76 17.2079V23.3999C159.76 23.5919 159.8 23.7279 159.88 23.8079C159.96 23.8879 160.096 23.9279 160.288 23.9279H161.296V24.5039H156.496V23.9279H157.504C157.696 23.9279 157.832 23.8879 157.912 23.8079C157.992 23.7279 158.032 23.5919 158.032 23.3999V16.3679C158.032 15.7279 157.88 15.1679 157.576 14.6879C157.272 14.1919 156.832 13.9439 156.256 13.9439C155.776 13.9439 155.32 14.1359 154.888 14.5199C154.472 14.8879 154.128 15.3999 153.856 16.0559C153.6 16.7119 153.472 17.4479 153.472 18.2639V23.3999C153.472 23.5919 153.512 23.7279 153.592 23.8079C153.672 23.8879 153.808 23.9279 154 23.9279H155.008V24.5039H150.208V23.9279H151.216C151.408 23.9279 151.544 23.8879 151.624 23.8079C151.704 23.7279 151.744 23.5919 151.744 23.3999V16.3679C151.744 15.7279 151.592 15.1679 151.288 14.6879C150.984 14.1919 150.544 13.9439 149.968 13.9439C149.488 13.9439 149.032 14.1359 148.6 14.5199C148.184 14.8879 147.84 15.3999 147.568 16.0559C147.312 16.7119 147.184 17.4479 147.184 18.2639V23.3999C147.184 23.5919 147.224 23.7279 147.304 23.8079C147.384 23.8879 147.52 23.9279 147.712 23.9279H148.72V24.5039H143.92V23.9279ZM168.159 24.7919C166.671 24.7919 165.471 24.2879 164.559 23.2799C163.663 22.2719 163.215 20.8719 163.215 19.0799C163.215 18.0559 163.415 17.1039 163.815 16.2239C164.215 15.3279 164.767 14.6159 165.471 14.0879C166.191 13.5439 166.991 13.2719 167.871 13.2719C168.847 13.2719 169.647 13.5359 170.271 14.0639C170.895 14.5919 171.343 15.2639 171.615 16.0799C171.903 16.8799 172.047 17.7039 172.047 18.5519C172.047 18.7279 171.991 18.8479 171.879 18.9119C171.767 18.9599 171.575 18.9839 171.303 18.9839H165.327C165.327 20.5839 165.551 21.8559 165.999 22.7999C166.463 23.7439 167.215 24.2159 168.255 24.2159C168.991 24.2159 169.679 23.9359 170.319 23.3759C170.975 22.8159 171.391 21.9439 171.567 20.7599H172.143C172.047 21.9279 171.639 22.8959 170.919 23.6639C170.215 24.4159 169.295 24.7919 168.159 24.7919ZM169.983 18.4079C169.983 17.1279 169.815 16.0479 169.479 15.1679C169.143 14.2879 168.591 13.8479 167.823 13.8479C167.007 13.8479 166.383 14.2959 165.951 15.1919C165.535 16.0719 165.327 17.1439 165.327 18.4079H169.983Z" fill="#BE9565"/>
</svg>
